<?xml version="1.0" encoding="UTF-8" standalone="no"?>
<!DOCTYPE svg PUBLIC "-//W3C//DTD SVG 1.1//EN"
 "http://www.w3.org/Graphics/SVG/1.1/DTD/svg11.dtd">
<!-- Generated by graphviz version 5.0.0 (20220707.1540)
 -->
<!-- Title: dependencies Pages: 1 -->
<svg width="1000pt" height="247pt"
 viewBox="0.00 0.00 1000.00 246.80" xmlns="http://www.w3.org/2000/svg" xmlns:xlink="http://www.w3.org/1999/xlink">
<g id="graph0" class="graph" transform="scale(1 1) rotate(0) translate(4 242.8)">
<title>dependencies</title>
<polygon fill="white" stroke="transparent" points="-4,4 -4,-242.8 996,-242.8 996,4 -4,4"/>
<text text-anchor="middle" x="496" y="-8.2" font-family="sans-serif" font-size="14.00">dependencies</text>
<g id="clust1" class="cluster">
<title>cluster_AppModule</title>
<polygon fill="none" stroke="black" stroke-dasharray="1,5" points="8,-32.8 8,-230.8 984,-230.8 984,-32.8 8,-32.8"/>
</g>
<g id="clust11" class="cluster">
<title>cluster_AppModule_bootstrap</title>
<polygon fill="none" stroke="black" points="430,-170.8 430,-222.8 554,-222.8 554,-170.8 430,-170.8"/>
</g>
<g id="clust9" class="cluster">
<title>cluster_AppModule_imports</title>
<polygon fill="none" stroke="black" points="832,-40.8 832,-92.8 976,-92.8 976,-40.8 832,-40.8"/>
</g>
<g id="clust2" class="cluster">
<title>cluster_AppModule_declarations</title>
<polygon fill="none" stroke="black" points="16,-40.8 16,-92.8 824,-92.8 824,-40.8 16,-40.8"/>
</g>
<!-- AppComponent -->
<g id="node1" class="node">
<title>AppComponent</title>
<polygon fill="#ffffb3" stroke="black" points="815.94,-84.8 710.06,-84.8 710.06,-48.8 815.94,-48.8 815.94,-84.8"/>
<text text-anchor="middle" x="763" y="-62.6" font-family="Times,serif" font-size="14.00">AppComponent</text>
</g>
<!-- AppModule -->
<g id="node7" class="node">
<title>AppModule</title>
<polygon fill="#8dd3c7" stroke="black" points="533.66,-149.8 530.66,-153.8 509.66,-153.8 506.66,-149.8 450.34,-149.8 450.34,-113.8 533.66,-113.8 533.66,-149.8"/>
<text text-anchor="middle" x="492" y="-127.6" font-family="Times,serif" font-size="14.00">AppModule</text>
</g>
<!-- AppComponent&#45;&gt;AppModule -->
<g id="edge1" class="edge">
<title>AppComponent&#45;&gt;AppModule</title>
<path fill="none" stroke="black" d="M763,-84.91C763,-104.14 763,-131.8 763,-131.8 763,-131.8 543.75,-131.8 543.75,-131.8"/>
<polygon fill="black" stroke="black" points="543.75,-128.3 533.75,-131.8 543.75,-135.3 543.75,-128.3"/>
</g>
<!-- FilterByBrandPipe -->
<g id="node2" class="node">
<title>FilterByBrandPipe</title>
<polygon fill="#ffffb3" stroke="black" points="691.77,-84.8 570.23,-84.8 570.23,-48.8 691.77,-48.8 691.77,-84.8"/>
<text text-anchor="middle" x="631" y="-62.6" font-family="Times,serif" font-size="14.00">FilterByBrandPipe</text>
</g>
<!-- FilterByBrandPipe&#45;&gt;AppModule -->
<g id="edge2" class="edge">
<title>FilterByBrandPipe&#45;&gt;AppModule</title>
<path fill="none" stroke="black" d="M631,-84.83C631,-101.2 631,-122.8 631,-122.8 631,-122.8 543.7,-122.8 543.7,-122.8"/>
<polygon fill="black" stroke="black" points="543.7,-119.3 533.7,-122.8 543.7,-126.3 543.7,-119.3"/>
</g>
<!-- FilterByNamePipe -->
<g id="node3" class="node">
<title>FilterByNamePipe</title>
<polygon fill="#ffffb3" stroke="black" points="552.49,-84.8 431.51,-84.8 431.51,-48.8 552.49,-48.8 552.49,-84.8"/>
<text text-anchor="middle" x="492" y="-62.6" font-family="Times,serif" font-size="14.00">FilterByNamePipe</text>
</g>
<!-- FilterByNamePipe&#45;&gt;AppModule -->
<g id="edge3" class="edge">
<title>FilterByNamePipe&#45;&gt;AppModule</title>
<path fill="none" stroke="black" d="M492,-84.91C492,-84.91 492,-103.79 492,-103.79"/>
<polygon fill="black" stroke="black" points="488.5,-103.79 492,-113.79 495.5,-103.79 488.5,-103.79"/>
</g>
<!-- LoginComponent -->
<g id="node4" class="node">
<title>LoginComponent</title>
<polygon fill="#ffffb3" stroke="black" points="413.27,-84.8 298.73,-84.8 298.73,-48.8 413.27,-48.8 413.27,-84.8"/>
<text text-anchor="middle" x="356" y="-62.6" font-family="Times,serif" font-size="14.00">LoginComponent</text>
</g>
<!-- LoginComponent&#45;&gt;AppModule -->
<g id="edge4" class="edge">
<title>LoginComponent&#45;&gt;AppModule</title>
<path fill="none" stroke="black" d="M356,-84.83C356,-101.2 356,-122.8 356,-122.8 356,-122.8 440.09,-122.8 440.09,-122.8"/>
<polygon fill="black" stroke="black" points="440.09,-126.3 450.09,-122.8 440.09,-119.3 440.09,-126.3"/>
</g>
<!-- NavBarComponent -->
<g id="node5" class="node">
<title>NavBarComponent</title>
<polygon fill="#ffffb3" stroke="black" points="280.37,-84.8 155.63,-84.8 155.63,-48.8 280.37,-48.8 280.37,-84.8"/>
<text text-anchor="middle" x="218" y="-62.6" font-family="Times,serif" font-size="14.00">NavBarComponent</text>
</g>
<!-- NavBarComponent&#45;&gt;AppModule -->
<g id="edge5" class="edge">
<title>NavBarComponent&#45;&gt;AppModule</title>
<path fill="none" stroke="black" d="M218,-84.91C218,-104.14 218,-131.8 218,-131.8 218,-131.8 440.09,-131.8 440.09,-131.8"/>
<polygon fill="black" stroke="black" points="440.09,-135.3 450.09,-131.8 440.09,-128.3 440.09,-135.3"/>
</g>
<!-- ToolsComponent -->
<g id="node6" class="node">
<title>ToolsComponent</title>
<polygon fill="#ffffb3" stroke="black" points="137.72,-84.8 24.28,-84.8 24.28,-48.8 137.72,-48.8 137.72,-84.8"/>
<text text-anchor="middle" x="81" y="-62.6" font-family="Times,serif" font-size="14.00">ToolsComponent</text>
</g>
<!-- ToolsComponent&#45;&gt;AppModule -->
<g id="edge6" class="edge">
<title>ToolsComponent&#45;&gt;AppModule</title>
<path fill="none" stroke="black" d="M81,-85.09C81,-107.01 81,-140.8 81,-140.8 81,-140.8 440.33,-140.8 440.33,-140.8"/>
<polygon fill="black" stroke="black" points="440.33,-144.3 450.33,-140.8 440.33,-137.3 440.33,-144.3"/>
</g>
<!-- AppComponent  -->
<g id="node9" class="node">
<title>AppComponent </title>
<polygon fill="#80b1d3" stroke="black" points="546.44,-214.8 437.56,-214.8 437.56,-178.8 546.44,-178.8 546.44,-214.8"/>
<text text-anchor="middle" x="492" y="-192.6" font-family="Times,serif" font-size="14.00">AppComponent </text>
</g>
<!-- AppModule&#45;&gt;AppComponent  -->
<g id="edge8" class="edge">
<title>AppModule&#45;&gt;AppComponent </title>
<path fill="none" stroke="black" stroke-dasharray="1,5" d="M492,-149.91C492,-149.91 492,-168.79 492,-168.79"/>
<polygon fill="black" stroke="black" points="488.5,-168.79 492,-178.79 495.5,-168.79 488.5,-168.79"/>
</g>
<!-- AppRoutingModule -->
<g id="node8" class="node">
<title>AppRoutingModule</title>
<polygon fill="#8dd3c7" stroke="black" points="968.28,-84.8 965.28,-88.8 944.28,-88.8 941.28,-84.8 839.72,-84.8 839.72,-48.8 968.28,-48.8 968.28,-84.8"/>
<text text-anchor="middle" x="904" y="-62.6" font-family="Times,serif" font-size="14.00">AppRoutingModule</text>
</g>
<!-- AppRoutingModule&#45;&gt;AppModule -->
<g id="edge7" class="edge">
<title>AppRoutingModule&#45;&gt;AppModule</title>
<path fill="none" stroke="black" d="M904,-85.09C904,-107.01 904,-140.8 904,-140.8 904,-140.8 543.77,-140.8 543.77,-140.8"/>
<polygon fill="black" stroke="black" points="543.77,-137.3 533.77,-140.8 543.77,-144.3 543.77,-137.3"/>
</g>
</g>
</svg>
