<?xml version="1.0" encoding="UTF-8" standalone="no"?>
<!DOCTYPE svg PUBLIC "-//W3C//DTD SVG 1.1//EN"
 "http://www.w3.org/Graphics/SVG/1.1/DTD/svg11.dtd">
<!-- Generated by graphviz version 5.0.0 (20220707.1540)
 -->
<!-- Title: dependencies Pages: 1 -->
<svg width="1000pt" height="247pt"
 viewBox="0.00 0.00 1000.00 246.80" xmlns="http://www.w3.org/2000/svg" xmlns:xlink="http://www.w3.org/1999/xlink">
<g id="graph0" class="graph" transform="scale(1 1) rotate(0) translate(4 242.8)">
<title>dependencies</title>
<polygon fill="white" stroke="transparent" points="-4,4 -4,-242.8 996,-242.8 996,4 -4,4"/>
<text text-anchor="middle" x="496" y="-8.2" font-family="sans-serif" font-size="14.00">dependencies</text>
<g id="clust1" class="cluster">
<title>cluster_AppModule</title>
<polygon fill="none" stroke="black" stroke-dasharray="1,5" points="8,-32.8 8,-230.8 984,-230.8 984,-32.8 8,-32.8"/>
</g>
<g id="clust2" class="cluster">
<title>cluster_AppModule_declarations</title>
<polygon fill="none" stroke="black" points="168,-40.8 168,-92.8 976,-92.8 976,-40.8 168,-40.8"/>
</g>
<g id="clust9" class="cluster">
<title>cluster_AppModule_imports</title>
<polygon fill="none" stroke="black" points="16,-40.8 16,-92.8 160,-92.8 160,-40.8 16,-40.8"/>
</g>
<g id="clust11" class="cluster">
<title>cluster_AppModule_bootstrap</title>
<polygon fill="none" stroke="black" points="446,-170.8 446,-222.8 570,-222.8 570,-170.8 446,-170.8"/>
</g>
<!-- AppComponent -->
<g id="node1" class="node">
<title>AppComponent</title>
<polygon fill="#ffffb3" stroke="black" points="967.94,-84.8 862.06,-84.8 862.06,-48.8 967.94,-48.8 967.94,-84.8"/>
<text text-anchor="middle" x="915" y="-62.6" font-family="Times,serif" font-size="14.00">AppComponent</text>
</g>
<!-- AppModule -->
<g id="node7" class="node">
<title>AppModule</title>
<polygon fill="#8dd3c7" stroke="black" points="549.66,-149.8 546.66,-153.8 525.66,-153.8 522.66,-149.8 466.34,-149.8 466.34,-113.8 549.66,-113.8 549.66,-149.8"/>
<text text-anchor="middle" x="508" y="-127.6" font-family="Times,serif" font-size="14.00">AppModule</text>
</g>
<!-- AppComponent&#45;&gt;AppModule -->
<g id="edge1" class="edge">
<title>AppComponent&#45;&gt;AppModule</title>
<path fill="none" stroke="black" d="M915,-85.09C915,-107.01 915,-140.8 915,-140.8 915,-140.8 560.02,-140.8 560.02,-140.8"/>
<polygon fill="black" stroke="black" points="560.02,-137.3 550.02,-140.8 560.02,-144.3 560.02,-137.3"/>
</g>
<!-- FilterByBrandPipe -->
<g id="node2" class="node">
<title>FilterByBrandPipe</title>
<polygon fill="#ffffb3" stroke="black" points="843.77,-84.8 722.23,-84.8 722.23,-48.8 843.77,-48.8 843.77,-84.8"/>
<text text-anchor="middle" x="783" y="-62.6" font-family="Times,serif" font-size="14.00">FilterByBrandPipe</text>
</g>
<!-- FilterByBrandPipe&#45;&gt;AppModule -->
<g id="edge2" class="edge">
<title>FilterByBrandPipe&#45;&gt;AppModule</title>
<path fill="none" stroke="black" d="M783,-84.91C783,-104.14 783,-131.8 783,-131.8 783,-131.8 559.77,-131.8 559.77,-131.8"/>
<polygon fill="black" stroke="black" points="559.77,-128.3 549.77,-131.8 559.77,-135.3 559.77,-128.3"/>
</g>
<!-- FilterByNamePipe -->
<g id="node3" class="node">
<title>FilterByNamePipe</title>
<polygon fill="#ffffb3" stroke="black" points="704.49,-84.8 583.51,-84.8 583.51,-48.8 704.49,-48.8 704.49,-84.8"/>
<text text-anchor="middle" x="644" y="-62.6" font-family="Times,serif" font-size="14.00">FilterByNamePipe</text>
</g>
<!-- FilterByNamePipe&#45;&gt;AppModule -->
<g id="edge3" class="edge">
<title>FilterByNamePipe&#45;&gt;AppModule</title>
<path fill="none" stroke="black" d="M644,-84.83C644,-101.2 644,-122.8 644,-122.8 644,-122.8 559.91,-122.8 559.91,-122.8"/>
<polygon fill="black" stroke="black" points="559.91,-119.3 549.91,-122.8 559.91,-126.3 559.91,-119.3"/>
</g>
<!-- LoginComponent -->
<g id="node4" class="node">
<title>LoginComponent</title>
<polygon fill="#ffffb3" stroke="black" points="565.27,-84.8 450.73,-84.8 450.73,-48.8 565.27,-48.8 565.27,-84.8"/>
<text text-anchor="middle" x="508" y="-62.6" font-family="Times,serif" font-size="14.00">LoginComponent</text>
</g>
<!-- LoginComponent&#45;&gt;AppModule -->
<g id="edge4" class="edge">
<title>LoginComponent&#45;&gt;AppModule</title>
<path fill="none" stroke="black" d="M508,-84.91C508,-84.91 508,-103.79 508,-103.79"/>
<polygon fill="black" stroke="black" points="504.5,-103.79 508,-113.79 511.5,-103.79 504.5,-103.79"/>
</g>
<!-- NavBarComponent -->
<g id="node5" class="node">
<title>NavBarComponent</title>
<polygon fill="#ffffb3" stroke="black" points="432.37,-84.8 307.63,-84.8 307.63,-48.8 432.37,-48.8 432.37,-84.8"/>
<text text-anchor="middle" x="370" y="-62.6" font-family="Times,serif" font-size="14.00">NavBarComponent</text>
</g>
<!-- NavBarComponent&#45;&gt;AppModule -->
<g id="edge5" class="edge">
<title>NavBarComponent&#45;&gt;AppModule</title>
<path fill="none" stroke="black" d="M370,-84.83C370,-101.2 370,-122.8 370,-122.8 370,-122.8 456.22,-122.8 456.22,-122.8"/>
<polygon fill="black" stroke="black" points="456.22,-126.3 466.22,-122.8 456.22,-119.3 456.22,-126.3"/>
</g>
<!-- ToolsComponent -->
<g id="node6" class="node">
<title>ToolsComponent</title>
<polygon fill="#ffffb3" stroke="black" points="289.72,-84.8 176.28,-84.8 176.28,-48.8 289.72,-48.8 289.72,-84.8"/>
<text text-anchor="middle" x="233" y="-62.6" font-family="Times,serif" font-size="14.00">ToolsComponent</text>
</g>
<!-- ToolsComponent&#45;&gt;AppModule -->
<g id="edge6" class="edge">
<title>ToolsComponent&#45;&gt;AppModule</title>
<path fill="none" stroke="black" d="M233,-84.91C233,-104.14 233,-131.8 233,-131.8 233,-131.8 456.23,-131.8 456.23,-131.8"/>
<polygon fill="black" stroke="black" points="456.23,-135.3 466.23,-131.8 456.23,-128.3 456.23,-135.3"/>
</g>
<!-- AppComponent  -->
<g id="node9" class="node">
<title>AppComponent </title>
<polygon fill="#80b1d3" stroke="black" points="562.44,-214.8 453.56,-214.8 453.56,-178.8 562.44,-178.8 562.44,-214.8"/>
<text text-anchor="middle" x="508" y="-192.6" font-family="Times,serif" font-size="14.00">AppComponent </text>
</g>
<!-- AppModule&#45;&gt;AppComponent  -->
<g id="edge8" class="edge">
<title>AppModule&#45;&gt;AppComponent </title>
<path fill="none" stroke="black" stroke-dasharray="1,5" d="M508,-149.91C508,-149.91 508,-168.79 508,-168.79"/>
<polygon fill="black" stroke="black" points="504.5,-168.79 508,-178.79 511.5,-168.79 504.5,-168.79"/>
</g>
<!-- AppRoutingModule -->
<g id="node8" class="node">
<title>AppRoutingModule</title>
<polygon fill="#8dd3c7" stroke="black" points="152.28,-84.8 149.28,-88.8 128.28,-88.8 125.28,-84.8 23.72,-84.8 23.72,-48.8 152.28,-48.8 152.28,-84.8"/>
<text text-anchor="middle" x="88" y="-62.6" font-family="Times,serif" font-size="14.00">AppRoutingModule</text>
</g>
<!-- AppRoutingModule&#45;&gt;AppModule -->
<g id="edge7" class="edge">
<title>AppRoutingModule&#45;&gt;AppModule</title>
<path fill="none" stroke="black" d="M88,-85.09C88,-107.01 88,-140.8 88,-140.8 88,-140.8 456.19,-140.8 456.19,-140.8"/>
<polygon fill="black" stroke="black" points="456.19,-144.3 466.19,-140.8 456.19,-137.3 456.19,-144.3"/>
</g>
</g>
</svg>
